{
    "asset" : {
        "generator" : "Khronos glTF Blender I/O v1.6.16",
        "version" : "2.0"
    },
    "scene" : 0,
    "scenes" : [
        {
            "name" : "Scene",
            "nodes" : [
                6
            ]
        }
    ],
    "nodes" : [
        {
            "name" : "Bone.004",
            "rotation" : [
                0.17039522528648376,
                -4.2363922564186626e-14,
                1.0697972641082742e-07,
                0.9853758215904236
            ],
            "scale" : [
                1,
                0.9999998807907104,
                1
            ],
            "translation" : [
                -3.7414069967021046e-16,
                0.4289308190345764,
                -2.2351741790771484e-08
            ]
        },
        {
            "children" : [
                0
            ],
            "name" : "Bone.003",
            "rotation" : [
                2.149682565288913e-08,
                -0.997652530670166,
                -0.06847943365573883,
                3.131795267563575e-07
            ],
            "scale" : [
                1,
                0.9999997615814209,
                1
            ],
            "translation" : [
                1.6460867296509175e-14,
                0.46886396408081055,
                1.5511837148096674e-08
            ]
        },
        {
            "children" : [
                1
            ],
            "name" : "Bone.002",
            "rotation" : [
                -0.0662272647023201,
                1.5750842351989732e-17,
                3.0456234288830843e-17,
                0.997804582118988
            ],
            "scale" : [
                1,
                0.9999998807907104,
                0.9999999403953552
            ],
            "translation" : [
                -1.1580528575742387e-23,
                0.44345009326934814,
                -3.725290298461914e-09
            ]
        },
        {
            "children" : [
                2
            ],
            "name" : "Bone.001",
            "rotation" : [
                0.06622724235057831,
                -1.5750842351989732e-17,
                -3.045622436266349e-17,
                0.997804582118988
            ],
            "translation" : [
                -6.879591267838216e-24,
                0.3516480028629303,
                3.6926117719104923e-09
            ]
        },
        {
            "children" : [
                3
            ],
            "name" : "Bone",
            "rotation" : [
                -1.1010111045095528e-08,
                -1.1102230246251565e-16,
                -1.1102230246251565e-16,
                1
            ]
        },
        {
            "mesh" : 0,
            "name" : "Ogon",
            "skin" : 0
        },
        {
            "children" : [
                5,
                4
            ],
            "name" : "Ogon Rigged",
            "rotation" : [
                -0.7071067690849304,
                0,
                0,
                0.7071068286895752
            ],
            "translation" : [
                0,
                0.4282439351081848,
                -0.7008057832717896
            ]
        }
    ],
    "meshes" : [
        {
            "name" : "Ogon",
            "primitives" : [
                {
                    "attributes" : {
                        "POSITION" : 0,
                        "NORMAL" : 1,
                        "JOINTS_0" : 2,
                        "WEIGHTS_0" : 3
                    },
                    "indices" : 4
                }
            ]
        }
    ],
    "skins" : [
        {
            "inverseBindMatrices" : 5,
            "joints" : [
                4,
                3,
                2,
                1,
                0
            ],
            "name" : "Ogon Rigged"
        }
    ],
    "accessors" : [
        {
            "bufferView" : 0,
            "componentType" : 5126,
            "count" : 17,
            "max" : [
                0.24207958579063416,
                0.7926636338233948,
                -0.48102590441703796
            ],
            "min" : [
                -0.24694083631038666,
                0.1407916247844696,
                -2.917280435562134
            ],
            "type" : "VEC3"
        },
        {
            "bufferView" : 1,
            "componentType" : 5126,
            "count" : 17,
            "type" : "VEC3"
        },
        {
            "bufferView" : 2,
            "componentType" : 5121,
            "count" : 17,
            "type" : "VEC4"
        },
        {
            "bufferView" : 3,
            "componentType" : 5126,
            "count" : 17,
            "type" : "VEC4"
        },
        {
            "bufferView" : 4,
            "componentType" : 5123,
            "count" : 90,
            "type" : "SCALAR"
        },
        {
            "bufferView" : 5,
            "componentType" : 5126,
            "count" : 5,
            "type" : "MAT4"
        }
    ],
    "bufferViews" : [
        {
            "buffer" : 0,
            "byteLength" : 204,
            "byteOffset" : 0
        },
        {
            "buffer" : 0,
            "byteLength" : 204,
            "byteOffset" : 204
        },
        {
            "buffer" : 0,
            "byteLength" : 68,
            "byteOffset" : 408
        },
        {
            "buffer" : 0,
            "byteLength" : 272,
            "byteOffset" : 476
        },
        {
            "buffer" : 0,
            "byteLength" : 180,
            "byteOffset" : 748
        },
        {
            "buffer" : 0,
            "byteLength" : 320,
            "byteOffset" : 928
        }
    ],
    "buffers" : [
        {
            "byteLength" : 1248,
            "uri" : "data:application/octet-stream;base64,"
        }
    ]
}
