{
    "asset" : {
        "generator" : "Khronos glTF Blender I/O v1.6.16",
        "version" : "2.0"
    },
    "scene" : 0,
    "scenes" : [
        {
            "name" : "Scene",
            "nodes" : [
                0,
                1,
                2,
                3,
                4,
                5
            ]
        }
    ],
    "nodes" : [
        {
            "mesh" : 0,
            "name" : "Cylinder",
            "rotation" : [
                0,
                -0.7071067690849304,
                0,
                0.7071068286895752
            ],
            "scale" : [
                1,
                7,
                1
            ],
            "translation" : [
                0,
                3.5,
                0
            ]
        },
        {
            "mesh" : 1,
            "name" : "Cylinder.001",
            "rotation" : [
                0,
                -0.7071067690849304,
                0,
                0.7071068286895752
            ],
            "scale" : [
                0.800000011920929,
                1.600000023841858,
                0.800000011920929
            ],
            "translation" : [
                0,
                7.8000006675720215,
                0
            ]
        },
        {
            "mesh" : 2,
            "name" : "Cylinder.002",
            "rotation" : [
                0,
                -0.7071067690849304,
                0,
                0.7071068286895752
            ],
            "scale" : [
                0.5600000023841858,
                1.600000023841858,
                0.5600000023841858
            ],
            "translation" : [
                0,
                9.399999618530273,
                0
            ]
        },
        {
            "mesh" : 3,
            "name" : "Cylinder.004",
            "rotation" : [
                -0.5,
                -0.4999999701976776,
                0.5,
                0.5000000596046448
            ],
            "scale" : [
                1.7209246158599854,
                0.5086476802825928,
                0.5934222340583801
            ],
            "translation" : [
                0,
                10.200000762939453,
                0
            ]
        },
        {
            "mesh" : 4,
            "name" : "Cylinder.005",
            "rotation" : [
                -0.5,
                -0.4999999701976776,
                0.5,
                0.5000000596046448
            ],
            "scale" : [
                1.1195214986801147,
                0.4383210241794586,
                0.7956558465957642
            ],
            "translation" : [
                0,
                8.600000381469727,
                0
            ]
        },
        {
            "mesh" : 5,
            "name" : "Cylinder.007",
            "rotation" : [
                -0.5,
                -0.4999999701976776,
                0.5,
                0.5000000596046448
            ],
            "scale" : [
                2.6096031665802,
                0.7713111042976379,
                0.8998629450798035
            ],
            "translation" : [
                0,
                7.000000476837158,
                0
            ]
        }
    ],
    "materials" : [
        {
            "doubleSided" : true,
            "name" : "Material",
            "pbrMetallicRoughness" : {
                "metallicFactor" : 0,
                "roughnessFactor" : 0.5
            }
        },
        {
            "doubleSided" : true,
            "name" : "Material.001",
            "pbrMetallicRoughness" : {
                "baseColorFactor" : [
                    0,
                    0,
                    0,
                    1
                ],
                "metallicFactor" : 0,
                "roughnessFactor" : 0.5
            }
        }
    ],
    "meshes" : [
        {
            "name" : "Cylinder",
            "primitives" : [
                {
                    "attributes" : {
                        "POSITION" : 0,
                        "NORMAL" : 1
                    },
                    "indices" : 2,
                    "material" : 0
                }
            ]
        },
        {
            "name" : "Cylinder.001",
            "primitives" : [
                {
                    "attributes" : {
                        "POSITION" : 3,
                        "NORMAL" : 4
                    },
                    "indices" : 2,
                    "material" : 0
                }
            ]
        },
        {
            "name" : "Cylinder.002",
            "primitives" : [
                {
                    "attributes" : {
                        "POSITION" : 5,
                        "NORMAL" : 6
                    },
                    "indices" : 2,
                    "material" : 0
                }
            ]
        },
        {
            "name" : "Cylinder.004",
            "primitives" : [
                {
                    "attributes" : {
                        "POSITION" : 7,
                        "NORMAL" : 8
                    },
                    "indices" : 2,
                    "material" : 0
                }
            ]
        },
        {
            "name" : "Cylinder.005",
            "primitives" : [
                {
                    "attributes" : {
                        "POSITION" : 9,
                        "NORMAL" : 10
                    },
                    "indices" : 2,
                    "material" : 1
                }
            ]
        },
        {
            "name" : "Cylinder.007",
            "primitives" : [
                {
                    "attributes" : {
                        "POSITION" : 11,
                        "NORMAL" : 12
                    },
                    "indices" : 2,
                    "material" : 1
                }
            ]
        }
    ],
    "accessors" : [
        {
            "bufferView" : 0,
            "componentType" : 5126,
            "count" : 16,
            "max" : [
                0.5,
                0.5,
                0.5
            ],
            "min" : [
                -0.4999999701976776,
                -0.5,
                -0.5
            ],
            "type" : "VEC3"
        },
        {
            "bufferView" : 1,
            "componentType" : 5126,
            "count" : 16,
            "type" : "VEC3"
        },
        {
            "bufferView" : 2,
            "componentType" : 5123,
            "count" : 84,
            "type" : "SCALAR"
        },
        {
            "bufferView" : 3,
            "componentType" : 5126,
            "count" : 16,
            "max" : [
                0.5,
                0.5,
                0.5
            ],
            "min" : [
                -0.4999999701976776,
                -0.5,
                -0.5
            ],
            "type" : "VEC3"
        },
        {
            "bufferView" : 4,
            "componentType" : 5126,
            "count" : 16,
            "type" : "VEC3"
        },
        {
            "bufferView" : 5,
            "componentType" : 5126,
            "count" : 16,
            "max" : [
                0.5,
                0.5,
                0.5
            ],
            "min" : [
                -0.4999999701976776,
                -0.5,
                -0.5
            ],
            "type" : "VEC3"
        },
        {
            "bufferView" : 6,
            "componentType" : 5126,
            "count" : 16,
            "type" : "VEC3"
        },
        {
            "bufferView" : 7,
            "componentType" : 5126,
            "count" : 16,
            "max" : [
                0.5,
                0.5,
                0.5
            ],
            "min" : [
                -0.4999999701976776,
                -0.5,
                -0.5
            ],
            "type" : "VEC3"
        },
        {
            "bufferView" : 8,
            "componentType" : 5126,
            "count" : 16,
            "type" : "VEC3"
        },
        {
            "bufferView" : 9,
            "componentType" : 5126,
            "count" : 16,
            "max" : [
                0.5,
                0.5,
                0.5
            ],
            "min" : [
                -0.4999999701976776,
                -0.5,
                -0.5
            ],
            "type" : "VEC3"
        },
        {
            "bufferView" : 10,
            "componentType" : 5126,
            "count" : 16,
            "type" : "VEC3"
        },
        {
            "bufferView" : 11,
            "componentType" : 5126,
            "count" : 16,
            "max" : [
                0.5,
                0.5,
                0.5
            ],
            "min" : [
                -0.4999999701976776,
                -0.5,
                -0.5
            ],
            "type" : "VEC3"
        },
        {
            "bufferView" : 12,
            "componentType" : 5126,
            "count" : 16,
            "type" : "VEC3"
        }
    ],
    "bufferViews" : [
        {
            "buffer" : 0,
            "byteLength" : 192,
            "byteOffset" : 0
        },
        {
            "buffer" : 0,
            "byteLength" : 192,
            "byteOffset" : 192
        },
        {
            "buffer" : 0,
            "byteLength" : 168,
            "byteOffset" : 384
        },
        {
            "buffer" : 0,
            "byteLength" : 192,
            "byteOffset" : 552
        },
        {
            "buffer" : 0,
            "byteLength" : 192,
            "byteOffset" : 744
        },
        {
            "buffer" : 0,
            "byteLength" : 192,
            "byteOffset" : 936
        },
        {
            "buffer" : 0,
            "byteLength" : 192,
            "byteOffset" : 1128
        },
        {
            "buffer" : 0,
            "byteLength" : 192,
            "byteOffset" : 1320
        },
        {
            "buffer" : 0,
            "byteLength" : 192,
            "byteOffset" : 1512
        },
        {
            "buffer" : 0,
            "byteLength" : 192,
            "byteOffset" : 1704
        },
        {
            "buffer" : 0,
            "byteLength" : 192,
            "byteOffset" : 1896
        },
        {
            "buffer" : 0,
            "byteLength" : 192,
            "byteOffset" : 2088
        },
        {
            "buffer" : 0,
            "byteLength" : 192,
            "byteOffset" : 2280
        }
    ],
    "buffers" : [
        {
            "byteLength" : 2472,
            "uri" : "data:application/octet-stream;base64,"
        }
    ]
}
