{
    "asset" : {
        "generator" : "Khronos glTF Blender I/O v1.4.40",
        "version" : "2.0"
    },
    "scene" : 0,
    "scenes" : [
        {
            "name" : "Scene",
            "nodes" : [
                0,
                1,
                2,
                3,
                4,
                5,
                6,
                7,
                8,
                9,
                10
            ]
        }
    ],
    "nodes" : [
        {
            "mesh" : 0,
            "name" : "Cylinder",
            "scale" : [
                0.5,
                8,
                0.5
            ],
            "translation" : [
                0,
                4,
                0
            ]
        },
        {
            "mesh" : 1,
            "name" : "Cube.001",
            "scale" : [
                1.5,
                0.22499999403953552,
                0.10000000149011612
            ],
            "translation" : [
                0,
                7.410289287567139,
                -0.25
            ]
        },
        {
            "mesh" : 2,
            "name" : "Cube.002",
            "scale" : [
                1.5,
                0.22499999403953552,
                0.10000000149011612
            ],
            "translation" : [
                0,
                7.410289287567139,
                0.25
            ]
        },
        {
            "mesh" : 3,
            "name" : "Cube.003",
            "scale" : [
                1.5,
                0.22499999403953552,
                0.10000000149011612
            ],
            "translation" : [
                0,
                6.328638553619385,
                -0.25
            ]
        },
        {
            "mesh" : 4,
            "name" : "Cylinder.001",
            "scale" : [
                0.20000000298023224,
                0.30000001192092896,
                0.20000000298023224
            ],
            "translation" : [
                1.2999999523162842,
                7.75,
                -0.25
            ]
        },
        {
            "mesh" : 5,
            "name" : "Cylinder.002",
            "scale" : [
                0.20000000298023224,
                0.30000001192092896,
                0.20000000298023224
            ],
            "translation" : [
                1,
                7.75,
                -0.25
            ]
        },
        {
            "mesh" : 6,
            "name" : "Cylinder.003",
            "scale" : [
                0.20000000298023224,
                0.30000001192092896,
                0.20000000298023224
            ],
            "translation" : [
                1.2999999523162842,
                6.699999809265137,
                -0.25
            ]
        },
        {
            "mesh" : 7,
            "name" : "Cylinder.004",
            "scale" : [
                0.20000000298023224,
                0.30000001192092896,
                0.20000000298023224
            ],
            "translation" : [
                1,
                6.699999809265137,
                -0.25
            ]
        },
        {
            "mesh" : 8,
            "name" : "Cube.004",
            "rotation" : [
                0,
                0,
                -0.38340887427330017,
                0.9235787391662598
            ],
            "scale" : [
                0.6000000238418579,
                0.10000000149011612,
                0.02500000037252903
            ],
            "translation" : [
                -0.339612752199173,
                5.760242938995361,
                -0.24024859070777893
            ]
        },
        {
            "mesh" : 9,
            "name" : "Cylinder.005",
            "scale" : [
                0.20000000298023224,
                0.30000001192092896,
                0.20000000298023224
            ],
            "translation" : [
                -1,
                7.75,
                0.25
            ]
        },
        {
            "mesh" : 10,
            "name" : "Cylinder.006",
            "scale" : [
                0.20000000298023224,
                0.30000001192092896,
                0.20000000298023224
            ],
            "translation" : [
                -1.2999999523162842,
                7.75,
                0.25
            ]
        }
    ],
    "materials" : [
        {
            "doubleSided" : true,
            "name" : "Wood",
            "pbrMetallicRoughness" : {
                "baseColorFactor" : [
                    0.11927413940429688,
                    0.027376042678952217,
                    0.01199366245418787,
                    1
                ],
                "metallicFactor" : 0,
                "roughnessFactor" : 0.5
            }
        },
        {
            "doubleSided" : true,
            "name" : "Metal",
            "pbrMetallicRoughness" : {
                "baseColorFactor" : [
                    0.367238312959671,
                    0.367238312959671,
                    0.367238312959671,
                    1
                ],
                "metallicFactor" : 0,
                "roughnessFactor" : 0.5
            }
        }
    ],
    "meshes" : [
        {
            "name" : "Cylinder",
            "primitives" : [
                {
                    "attributes" : {
                        "POSITION" : 0,
                        "NORMAL" : 1,
                        "TEXCOORD_0" : 2
                    },
                    "indices" : 3,
                    "material" : 0
                }
            ]
        },
        {
            "name" : "Cube.001",
            "primitives" : [
                {
                    "attributes" : {
                        "POSITION" : 4,
                        "NORMAL" : 5,
                        "TEXCOORD_0" : 6
                    },
                    "indices" : 7,
                    "material" : 0
                }
            ]
        },
        {
            "name" : "Cube.002",
            "primitives" : [
                {
                    "attributes" : {
                        "POSITION" : 8,
                        "NORMAL" : 9,
                        "TEXCOORD_0" : 10
                    },
                    "indices" : 7,
                    "material" : 0
                }
            ]
        },
        {
            "name" : "Cube.003",
            "primitives" : [
                {
                    "attributes" : {
                        "POSITION" : 11,
                        "NORMAL" : 12,
                        "TEXCOORD_0" : 13
                    },
                    "indices" : 7,
                    "material" : 0
                }
            ]
        },
        {
            "name" : "Cylinder.001",
            "primitives" : [
                {
                    "attributes" : {
                        "POSITION" : 14,
                        "NORMAL" : 15,
                        "TEXCOORD_0" : 16
                    },
                    "indices" : 3,
                    "material" : 1
                }
            ]
        },
        {
            "name" : "Cylinder.002",
            "primitives" : [
                {
                    "attributes" : {
                        "POSITION" : 17,
                        "NORMAL" : 18,
                        "TEXCOORD_0" : 19
                    },
                    "indices" : 3,
                    "material" : 1
                }
            ]
        },
        {
            "name" : "Cylinder.005",
            "primitives" : [
                {
                    "attributes" : {
                        "POSITION" : 20,
                        "NORMAL" : 21,
                        "TEXCOORD_0" : 22
                    },
                    "indices" : 3,
                    "material" : 1
                }
            ]
        },
        {
            "name" : "Cylinder.006",
            "primitives" : [
                {
                    "attributes" : {
                        "POSITION" : 23,
                        "NORMAL" : 24,
                        "TEXCOORD_0" : 25
                    },
                    "indices" : 3,
                    "material" : 1
                }
            ]
        },
        {
            "name" : "Cube.005",
            "primitives" : [
                {
                    "attributes" : {
                        "POSITION" : 26,
                        "NORMAL" : 27,
                        "TEXCOORD_0" : 28
                    },
                    "indices" : 7,
                    "material" : 1
                }
            ]
        },
        {
            "name" : "Cylinder.007",
            "primitives" : [
                {
                    "attributes" : {
                        "POSITION" : 29,
                        "NORMAL" : 30,
                        "TEXCOORD_0" : 31
                    },
                    "indices" : 3,
                    "material" : 1
                }
            ]
        },
        {
            "name" : "Cylinder.008",
            "primitives" : [
                {
                    "attributes" : {
                        "POSITION" : 32,
                        "NORMAL" : 33,
                        "TEXCOORD_0" : 34
                    },
                    "indices" : 3,
                    "material" : 1
                }
            ]
        }
    ],
    "accessors" : [
        {
            "bufferView" : 0,
            "componentType" : 5126,
            "count" : 48,
            "max" : [
                0.5,
                0.5,
                0.5
            ],
            "min" : [
                -0.5,
                -0.5,
                -0.5
            ],
            "type" : "VEC3"
        },
        {
            "bufferView" : 1,
            "componentType" : 5126,
            "count" : 48,
            "type" : "VEC3"
        },
        {
            "bufferView" : 2,
            "componentType" : 5126,
            "count" : 48,
            "type" : "VEC2"
        },
        {
            "bufferView" : 3,
            "componentType" : 5123,
            "count" : 84,
            "type" : "SCALAR"
        },
        {
            "bufferView" : 4,
            "componentType" : 5126,
            "count" : 24,
            "max" : [
                1,
                1,
                1
            ],
            "min" : [
                -1,
                -1,
                -1
            ],
            "type" : "VEC3"
        },
        {
            "bufferView" : 5,
            "componentType" : 5126,
            "count" : 24,
            "type" : "VEC3"
        },
        {
            "bufferView" : 6,
            "componentType" : 5126,
            "count" : 24,
            "type" : "VEC2"
        },
        {
            "bufferView" : 7,
            "componentType" : 5123,
            "count" : 36,
            "type" : "SCALAR"
        },
        {
            "bufferView" : 8,
            "componentType" : 5126,
            "count" : 24,
            "max" : [
                1,
                1,
                1
            ],
            "min" : [
                -1,
                -1,
                -1
            ],
            "type" : "VEC3"
        },
        {
            "bufferView" : 9,
            "componentType" : 5126,
            "count" : 24,
            "type" : "VEC3"
        },
        {
            "bufferView" : 10,
            "componentType" : 5126,
            "count" : 24,
            "type" : "VEC2"
        },
        {
            "bufferView" : 11,
            "componentType" : 5126,
            "count" : 24,
            "max" : [
                1,
                1,
                1
            ],
            "min" : [
                -1,
                -1,
                -1
            ],
            "type" : "VEC3"
        },
        {
            "bufferView" : 12,
            "componentType" : 5126,
            "count" : 24,
            "type" : "VEC3"
        },
        {
            "bufferView" : 13,
            "componentType" : 5126,
            "count" : 24,
            "type" : "VEC2"
        },
        {
            "bufferView" : 14,
            "componentType" : 5126,
            "count" : 48,
            "max" : [
                0.5,
                0.5,
                0.5
            ],
            "min" : [
                -0.5,
                -0.5,
                -0.5
            ],
            "type" : "VEC3"
        },
        {
            "bufferView" : 15,
            "componentType" : 5126,
            "count" : 48,
            "type" : "VEC3"
        },
        {
            "bufferView" : 16,
            "componentType" : 5126,
            "count" : 48,
            "type" : "VEC2"
        },
        {
            "bufferView" : 17,
            "componentType" : 5126,
            "count" : 48,
            "max" : [
                0.5,
                0.5,
                0.5
            ],
            "min" : [
                -0.5,
                -0.5,
                -0.5
            ],
            "type" : "VEC3"
        },
        {
            "bufferView" : 18,
            "componentType" : 5126,
            "count" : 48,
            "type" : "VEC3"
        },
        {
            "bufferView" : 19,
            "componentType" : 5126,
            "count" : 48,
            "type" : "VEC2"
        },
        {
            "bufferView" : 20,
            "componentType" : 5126,
            "count" : 48,
            "max" : [
                0.5,
                0.5,
                0.5
            ],
            "min" : [
                -0.5,
                -0.5,
                -0.5
            ],
            "type" : "VEC3"
        },
        {
            "bufferView" : 21,
            "componentType" : 5126,
            "count" : 48,
            "type" : "VEC3"
        },
        {
            "bufferView" : 22,
            "componentType" : 5126,
            "count" : 48,
            "type" : "VEC2"
        },
        {
            "bufferView" : 23,
            "componentType" : 5126,
            "count" : 48,
            "max" : [
                0.5,
                0.5,
                0.5
            ],
            "min" : [
                -0.5,
                -0.5,
                -0.5
            ],
            "type" : "VEC3"
        },
        {
            "bufferView" : 24,
            "componentType" : 5126,
            "count" : 48,
            "type" : "VEC3"
        },
        {
            "bufferView" : 25,
            "componentType" : 5126,
            "count" : 48,
            "type" : "VEC2"
        },
        {
            "bufferView" : 26,
            "componentType" : 5126,
            "count" : 24,
            "max" : [
                1,
                1,
                1
            ],
            "min" : [
                -1,
                -1,
                -1
            ],
            "type" : "VEC3"
        },
        {
            "bufferView" : 27,
            "componentType" : 5126,
            "count" : 24,
            "type" : "VEC3"
        },
        {
            "bufferView" : 28,
            "componentType" : 5126,
            "count" : 24,
            "type" : "VEC2"
        },
        {
            "bufferView" : 29,
            "componentType" : 5126,
            "count" : 48,
            "max" : [
                0.5,
                0.5,
                0.5
            ],
            "min" : [
                -0.5,
                -0.5,
                -0.5
            ],
            "type" : "VEC3"
        },
        {
            "bufferView" : 30,
            "componentType" : 5126,
            "count" : 48,
            "type" : "VEC3"
        },
        {
            "bufferView" : 31,
            "componentType" : 5126,
            "count" : 48,
            "type" : "VEC2"
        },
        {
            "bufferView" : 32,
            "componentType" : 5126,
            "count" : 48,
            "max" : [
                0.5,
                0.5,
                0.5
            ],
            "min" : [
                -0.5,
                -0.5,
                -0.5
            ],
            "type" : "VEC3"
        },
        {
            "bufferView" : 33,
            "componentType" : 5126,
            "count" : 48,
            "type" : "VEC3"
        },
        {
            "bufferView" : 34,
            "componentType" : 5126,
            "count" : 48,
            "type" : "VEC2"
        }
    ],
    "bufferViews" : [
        {
            "buffer" : 0,
            "byteLength" : 576,
            "byteOffset" : 0
        },
        {
            "buffer" : 0,
            "byteLength" : 576,
            "byteOffset" : 576
        },
        {
            "buffer" : 0,
            "byteLength" : 384,
            "byteOffset" : 1152
        },
        {
            "buffer" : 0,
            "byteLength" : 168,
            "byteOffset" : 1536
        },
        {
            "buffer" : 0,
            "byteLength" : 288,
            "byteOffset" : 1704
        },
        {
            "buffer" : 0,
            "byteLength" : 288,
            "byteOffset" : 1992
        },
        {
            "buffer" : 0,
            "byteLength" : 192,
            "byteOffset" : 2280
        },
        {
            "buffer" : 0,
            "byteLength" : 72,
            "byteOffset" : 2472
        },
        {
            "buffer" : 0,
            "byteLength" : 288,
            "byteOffset" : 2544
        },
        {
            "buffer" : 0,
            "byteLength" : 288,
            "byteOffset" : 2832
        },
        {
            "buffer" : 0,
            "byteLength" : 192,
            "byteOffset" : 3120
        },
        {
            "buffer" : 0,
            "byteLength" : 288,
            "byteOffset" : 3312
        },
        {
            "buffer" : 0,
            "byteLength" : 288,
            "byteOffset" : 3600
        },
        {
            "buffer" : 0,
            "byteLength" : 192,
            "byteOffset" : 3888
        },
        {
            "buffer" : 0,
            "byteLength" : 576,
            "byteOffset" : 4080
        },
        {
            "buffer" : 0,
            "byteLength" : 576,
            "byteOffset" : 4656
        },
        {
            "buffer" : 0,
            "byteLength" : 384,
            "byteOffset" : 5232
        },
        {
            "buffer" : 0,
            "byteLength" : 576,
            "byteOffset" : 5616
        },
        {
            "buffer" : 0,
            "byteLength" : 576,
            "byteOffset" : 6192
        },
        {
            "buffer" : 0,
            "byteLength" : 384,
            "byteOffset" : 6768
        },
        {
            "buffer" : 0,
            "byteLength" : 576,
            "byteOffset" : 7152
        },
        {
            "buffer" : 0,
            "byteLength" : 576,
            "byteOffset" : 7728
        },
        {
            "buffer" : 0,
            "byteLength" : 384,
            "byteOffset" : 8304
        },
        {
            "buffer" : 0,
            "byteLength" : 576,
            "byteOffset" : 8688
        },
        {
            "buffer" : 0,
            "byteLength" : 576,
            "byteOffset" : 9264
        },
        {
            "buffer" : 0,
            "byteLength" : 384,
            "byteOffset" : 9840
        },
        {
            "buffer" : 0,
            "byteLength" : 288,
            "byteOffset" : 10224
        },
        {
            "buffer" : 0,
            "byteLength" : 288,
            "byteOffset" : 10512
        },
        {
            "buffer" : 0,
            "byteLength" : 192,
            "byteOffset" : 10800
        },
        {
            "buffer" : 0,
            "byteLength" : 576,
            "byteOffset" : 10992
        },
        {
            "buffer" : 0,
            "byteLength" : 576,
            "byteOffset" : 11568
        },
        {
            "buffer" : 0,
            "byteLength" : 384,
            "byteOffset" : 12144
        },
        {
            "buffer" : 0,
            "byteLength" : 576,
            "byteOffset" : 12528
        },
        {
            "buffer" : 0,
            "byteLength" : 576,
            "byteOffset" : 13104
        },
        {
            "buffer" : 0,
            "byteLength" : 384,
            "byteOffset" : 13680
        }
    ],
    "buffers" : [
        {
            "byteLength" : 14064,
            "uri" : "slup.bin"
        }
    ]
}
