{
    "asset" : {
        "generator" : "Khronos glTF Blender I/O v1.4.40",
        "version" : "2.0"
    },
    "scene" : 0,
    "scenes" : [
        {
            "name" : "Scene",
            "nodes" : [
                0,
                1,
                2,
                3,
                4,
                5,
                6,
                7
            ]
        }
    ],
    "nodes" : [
        {
            "mesh" : 0,
            "name" : "Cylinder",
            "scale" : [
                0.5,
                8,
                0.5
            ],
            "translation" : [
                0,
                4,
                0
            ]
        },
        {
            "mesh" : 1,
            "name" : "Cube.001",
            "scale" : [
                3,
                0.44999998807907104,
                0.20000000298023224
            ],
            "translation" : [
                0,
                7.410289287567139,
                -0.25
            ]
        },
        {
            "mesh" : 2,
            "name" : "Cube.002",
            "scale" : [
                3,
                0.44999998807907104,
                0.20000000298023224
            ],
            "translation" : [
                0,
                7.410289287567139,
                0.25
            ]
        },
        {
            "mesh" : 3,
            "name" : "Cube.003",
            "scale" : [
                3,
                0.44999998807907104,
                0.20000000298023224
            ],
            "translation" : [
                0,
                6.328638553619385,
                -0.25
            ]
        },
        {
            "mesh" : 4,
            "name" : "Cylinder.003",
            "scale" : [
                0.20000000298023224,
                0.30000001192092896,
                0.20000000298023224
            ],
            "translation" : [
                1.2999999523162842,
                6.699999809265137,
                -0.25
            ]
        },
        {
            "mesh" : 5,
            "name" : "Cube.004",
            "rotation" : [
                0,
                0,
                -0.38340887427330017,
                0.9235787391662598
            ],
            "scale" : [
                1.2000000476837158,
                0.20000000298023224,
                0.05000000074505806
            ],
            "translation" : [
                -0.339612752199173,
                5.760242938995361,
                -0.24024859070777893
            ]
        },
        {
            "mesh" : 6,
            "name" : "Cylinder.005",
            "scale" : [
                0.20000000298023224,
                0.30000001192092896,
                0.20000000298023224
            ],
            "translation" : [
                -1,
                7.75,
                0.25
            ]
        },
        {
            "mesh" : 7,
            "name" : "Cylinder.006",
            "scale" : [
                0.20000000298023224,
                0.30000001192092896,
                0.20000000298023224
            ],
            "translation" : [
                -1.2999999523162842,
                7.75,
                0.25
            ]
        }
    ],
    "materials" : [
        {
            "doubleSided" : true,
            "name" : "Wood",
            "pbrMetallicRoughness" : {
                "baseColorFactor" : [
                    0.11927413940429688,
                    0.027376042678952217,
                    0.01199366245418787,
                    1
                ],
                "metallicFactor" : 0,
                "roughnessFactor" : 0.5
            }
        },
        {
            "doubleSided" : true,
            "name" : "Metal",
            "pbrMetallicRoughness" : {
                "baseColorFactor" : [
                    0.367238312959671,
                    0.367238312959671,
                    0.367238312959671,
                    1
                ],
                "metallicFactor" : 0,
                "roughnessFactor" : 0.5
            }
        }
    ],
    "meshes" : [
        {
            "name" : "Cylinder",
            "primitives" : [
                {
                    "attributes" : {
                        "POSITION" : 0,
                        "NORMAL" : 1
                    },
                    "indices" : 2,
                    "material" : 0
                }
            ]
        },
        {
            "name" : "Cube.001",
            "primitives" : [
                {
                    "attributes" : {
                        "POSITION" : 3,
                        "NORMAL" : 4
                    },
                    "indices" : 5,
                    "material" : 0
                }
            ]
        },
        {
            "name" : "Cube.002",
            "primitives" : [
                {
                    "attributes" : {
                        "POSITION" : 6,
                        "NORMAL" : 7
                    },
                    "indices" : 5,
                    "material" : 0
                }
            ]
        },
        {
            "name" : "Cube.003",
            "primitives" : [
                {
                    "attributes" : {
                        "POSITION" : 8,
                        "NORMAL" : 9
                    },
                    "indices" : 5,
                    "material" : 0
                }
            ]
        },
        {
            "name" : "Cylinder.005",
            "primitives" : [
                {
                    "attributes" : {
                        "POSITION" : 10,
                        "NORMAL" : 11
                    },
                    "indices" : 2,
                    "material" : 1
                }
            ]
        },
        {
            "name" : "Cube.005",
            "primitives" : [
                {
                    "attributes" : {
                        "POSITION" : 12,
                        "NORMAL" : 13
                    },
                    "indices" : 5,
                    "material" : 1
                }
            ]
        },
        {
            "name" : "Cylinder.007",
            "primitives" : [
                {
                    "attributes" : {
                        "POSITION" : 14,
                        "NORMAL" : 15
                    },
                    "indices" : 2,
                    "material" : 1
                }
            ]
        },
        {
            "name" : "Cylinder.008",
            "primitives" : [
                {
                    "attributes" : {
                        "POSITION" : 16,
                        "NORMAL" : 17
                    },
                    "indices" : 2,
                    "material" : 1
                }
            ]
        }
    ],
    "accessors" : [
        {
            "bufferView" : 0,
            "componentType" : 5126,
            "count" : 48,
            "max" : [
                0.5,
                0.5,
                0.5
            ],
            "min" : [
                -0.5,
                -0.5,
                -0.5
            ],
            "type" : "VEC3"
        },
        {
            "bufferView" : 1,
            "componentType" : 5126,
            "count" : 48,
            "type" : "VEC3"
        },
        {
            "bufferView" : 2,
            "componentType" : 5123,
            "count" : 84,
            "type" : "SCALAR"
        },
        {
            "bufferView" : 3,
            "componentType" : 5126,
            "count" : 24,
            "max" : [
                0.5,
                0.5,
                0.5
            ],
            "min" : [
                -0.5,
                -0.5,
                -0.5
            ],
            "type" : "VEC3"
        },
        {
            "bufferView" : 4,
            "componentType" : 5126,
            "count" : 24,
            "type" : "VEC3"
        },
        {
            "bufferView" : 5,
            "componentType" : 5123,
            "count" : 36,
            "type" : "SCALAR"
        },
        {
            "bufferView" : 6,
            "componentType" : 5126,
            "count" : 24,
            "max" : [
                0.5,
                0.5,
                0.5
            ],
            "min" : [
                -0.5,
                -0.5,
                -0.5
            ],
            "type" : "VEC3"
        },
        {
            "bufferView" : 7,
            "componentType" : 5126,
            "count" : 24,
            "type" : "VEC3"
        },
        {
            "bufferView" : 8,
            "componentType" : 5126,
            "count" : 24,
            "max" : [
                0.5,
                0.5,
                0.5
            ],
            "min" : [
                -0.5,
                -0.5,
                -0.5
            ],
            "type" : "VEC3"
        },
        {
            "bufferView" : 9,
            "componentType" : 5126,
            "count" : 24,
            "type" : "VEC3"
        },
        {
            "bufferView" : 10,
            "componentType" : 5126,
            "count" : 48,
            "max" : [
                0.5,
                0.5,
                0.5
            ],
            "min" : [
                -0.5,
                -0.5,
                -0.5
            ],
            "type" : "VEC3"
        },
        {
            "bufferView" : 11,
            "componentType" : 5126,
            "count" : 48,
            "type" : "VEC3"
        },
        {
            "bufferView" : 12,
            "componentType" : 5126,
            "count" : 24,
            "max" : [
                0.5000004768371582,
                0.4999980926513672,
                0.5
            ],
            "min" : [
                -0.499999463558197,
                -0.5000019073486328,
                -0.5
            ],
            "type" : "VEC3"
        },
        {
            "bufferView" : 13,
            "componentType" : 5126,
            "count" : 24,
            "type" : "VEC3"
        },
        {
            "bufferView" : 14,
            "componentType" : 5126,
            "count" : 48,
            "max" : [
                0.5,
                0.5,
                0.5
            ],
            "min" : [
                -0.5,
                -0.5,
                -0.5
            ],
            "type" : "VEC3"
        },
        {
            "bufferView" : 15,
            "componentType" : 5126,
            "count" : 48,
            "type" : "VEC3"
        },
        {
            "bufferView" : 16,
            "componentType" : 5126,
            "count" : 48,
            "max" : [
                0.5,
                0.5,
                0.5
            ],
            "min" : [
                -0.5,
                -0.5,
                -0.5
            ],
            "type" : "VEC3"
        },
        {
            "bufferView" : 17,
            "componentType" : 5126,
            "count" : 48,
            "type" : "VEC3"
        }
    ],
    "bufferViews" : [
        {
            "buffer" : 0,
            "byteLength" : 576,
            "byteOffset" : 0
        },
        {
            "buffer" : 0,
            "byteLength" : 576,
            "byteOffset" : 576
        },
        {
            "buffer" : 0,
            "byteLength" : 168,
            "byteOffset" : 1152
        },
        {
            "buffer" : 0,
            "byteLength" : 288,
            "byteOffset" : 1320
        },
        {
            "buffer" : 0,
            "byteLength" : 288,
            "byteOffset" : 1608
        },
        {
            "buffer" : 0,
            "byteLength" : 72,
            "byteOffset" : 1896
        },
        {
            "buffer" : 0,
            "byteLength" : 288,
            "byteOffset" : 1968
        },
        {
            "buffer" : 0,
            "byteLength" : 288,
            "byteOffset" : 2256
        },
        {
            "buffer" : 0,
            "byteLength" : 288,
            "byteOffset" : 2544
        },
        {
            "buffer" : 0,
            "byteLength" : 288,
            "byteOffset" : 2832
        },
        {
            "buffer" : 0,
            "byteLength" : 576,
            "byteOffset" : 3120
        },
        {
            "buffer" : 0,
            "byteLength" : 576,
            "byteOffset" : 3696
        },
        {
            "buffer" : 0,
            "byteLength" : 288,
            "byteOffset" : 4272
        },
        {
            "buffer" : 0,
            "byteLength" : 288,
            "byteOffset" : 4560
        },
        {
            "buffer" : 0,
            "byteLength" : 576,
            "byteOffset" : 4848
        },
        {
            "buffer" : 0,
            "byteLength" : 576,
            "byteOffset" : 5424
        },
        {
            "buffer" : 0,
            "byteLength" : 576,
            "byteOffset" : 6000
        },
        {
            "buffer" : 0,
            "byteLength" : 576,
            "byteOffset" : 6576
        }
    ],
    "buffers" : [
        {
            "byteLength" : 7152,
            "uri" : "data:application/octet-stream;base64,"
        }
    ]
}
