{
    "asset" : {
        "generator" : "Khronos glTF Blender I/O v1.6.16",
        "version" : "2.0"
    },
    "scene" : 0,
    "scenes" : [
        {
            "name" : "Scene",
            "nodes" : [
                7
            ]
        }
    ],
    "nodes" : [
        {
            "name" : "Neck",
            "rotation" : [
                -0.40009284019470215,
                -1.0559382701558206e-08,
                1.479286648731204e-08,
                0.9164746403694153
            ],
            "scale" : [
                1,
                1.0000001192092896,
                1
            ],
            "translation" : [
                0,
                0.4561888575553894,
                1.3934394971215625e-08
            ]
        },
        {
            "name" : "Arm.L",
            "rotation" : [
                0.7403796911239624,
                5.896089660950565e-08,
                1.4796911784742406e-07,
                0.672188937664032
            ],
            "translation" : [
                0.07323668897151947,
                0.45618900656700134,
                2.355363726280757e-08
            ]
        },
        {
            "name" : "Arm.R",
            "rotation" : [
                0.7403797507286072,
                -5.380410073030362e-08,
                -9.01471608472093e-09,
                0.6721888780593872
            ],
            "translation" : [
                -0.07323671132326126,
                0.4561888873577118,
                1.234002411365509e-08
            ]
        },
        {
            "name" : "Leg.L",
            "rotation" : [
                0.7527179718017578,
                7.527987122557533e-09,
                -7.235894994295222e-09,
                0.6583431959152222
            ],
            "scale" : [
                1,
                1.0000001192092896,
                1
            ],
            "translation" : [
                0.07323671132326126,
                -3.3527612686157227e-08,
                1.4901161193847656e-08
            ]
        },
        {
            "name" : "Leg.R",
            "rotation" : [
                0.7527178525924683,
                -8.038623100503628e-09,
                6.599935264972601e-09,
                0.6583432555198669
            ],
            "scale" : [
                1,
                1.0000001192092896,
                1.0000001192092896
            ],
            "translation" : [
                -0.07323671132326126,
                -3.3527612686157227e-08,
                1.4901161193847656e-08
            ]
        },
        {
            "children" : [
                0,
                1,
                2,
                3,
                4
            ],
            "name" : "Root",
            "rotation" : [
                0.6721892952919006,
                0,
                0,
                0.7403793334960938
            ],
            "scale" : [
                1,
                1.0000001192092896,
                1.0000219345092773
            ],
            "translation" : [
                0,
                0.35153621435165405,
                -0.46871498227119446
            ]
        },
        {
            "mesh" : 0,
            "name" : "Lisek",
            "skin" : 0
        },
        {
            "children" : [
                6,
                5
            ],
            "name" : "Lisek Rigged"
        }
    ],
    "meshes" : [
        {
            "name" : "Lisek",
            "primitives" : [
                {
                    "attributes" : {
                        "POSITION" : 0,
                        "NORMAL" : 1,
                        "JOINTS_0" : 2,
                        "WEIGHTS_0" : 3
                    },
                    "indices" : 4
                }
            ]
        }
    ],
    "skins" : [
        {
            "inverseBindMatrices" : 5,
            "joints" : [
                5,
                0,
                1,
                2,
                3,
                4
            ],
            "name" : "Lisek Rigged"
        }
    ],
    "accessors" : [
        {
            "bufferView" : 0,
            "componentType" : 5126,
            "count" : 20,
            "max" : [
                0.17576810717582703,
                0.8927847743034363,
                0.3726760149002075
            ],
            "min" : [
                -0.17576810717582703,
                -0.0007031192653812468,
                -0.584916353225708
            ],
            "type" : "VEC3"
        },
        {
            "bufferView" : 1,
            "componentType" : 5126,
            "count" : 20,
            "type" : "VEC3"
        },
        {
            "bufferView" : 2,
            "componentType" : 5121,
            "count" : 20,
            "type" : "VEC4"
        },
        {
            "bufferView" : 3,
            "componentType" : 5126,
            "count" : 20,
            "type" : "VEC4"
        },
        {
            "bufferView" : 4,
            "componentType" : 5123,
            "count" : 108,
            "type" : "SCALAR"
        },
        {
            "bufferView" : 5,
            "componentType" : 5126,
            "count" : 6,
            "type" : "MAT4"
        }
    ],
    "bufferViews" : [
        {
            "buffer" : 0,
            "byteLength" : 240,
            "byteOffset" : 0
        },
        {
            "buffer" : 0,
            "byteLength" : 240,
            "byteOffset" : 240
        },
        {
            "buffer" : 0,
            "byteLength" : 80,
            "byteOffset" : 480
        },
        {
            "buffer" : 0,
            "byteLength" : 320,
            "byteOffset" : 560
        },
        {
            "buffer" : 0,
            "byteLength" : 216,
            "byteOffset" : 880
        },
        {
            "buffer" : 0,
            "byteLength" : 384,
            "byteOffset" : 1096
        }
    ],
    "buffers" : [
        {
            "byteLength" : 1480,
            "uri" : "data:application/octet-stream;base64,"
        }
    ]
}
