{
    "asset" : {
        "generator" : "Khronos glTF Blender I/O v1.6.16",
        "version" : "2.0"
    },
    "scene" : 0,
    "scenes" : [
        {
            "name" : "Scene",
            "nodes" : [
                7,
                13
            ]
        }
    ],
    "nodes" : [
        {
            "name" : "Neck",
            "rotation" : [
                -0.40009284019470215,
                -1.0559382701558206e-08,
                1.479286648731204e-08,
                0.9164746403694153
            ],
            "scale" : [
                1,
                1.0000001192092896,
                1
            ],
            "translation" : [
                0,
                0.4561888575553894,
                1.3934394971215625e-08
            ]
        },
        {
            "name" : "Arm.L",
            "rotation" : [
                0.7403796911239624,
                5.896089660950565e-08,
                1.4796911784742406e-07,
                0.672188937664032
            ],
            "translation" : [
                0.07323668897151947,
                0.45618900656700134,
                2.355363726280757e-08
            ]
        },
        {
            "name" : "Arm.R",
            "rotation" : [
                0.7403797507286072,
                -5.380410073030362e-08,
                -9.01471608472093e-09,
                0.6721888780593872
            ],
            "translation" : [
                -0.07323671132326126,
                0.4561888873577118,
                1.234002411365509e-08
            ]
        },
        {
            "name" : "Leg.L",
            "rotation" : [
                0.7527179718017578,
                7.527987122557533e-09,
                -7.235894994295222e-09,
                0.6583431959152222
            ],
            "scale" : [
                1,
                1.0000001192092896,
                1
            ],
            "translation" : [
                0.07323671132326126,
                -3.3527612686157227e-08,
                1.4901161193847656e-08
            ]
        },
        {
            "name" : "Leg.R",
            "rotation" : [
                0.7527178525924683,
                -8.038623100503628e-09,
                6.599935264972601e-09,
                0.6583432555198669
            ],
            "scale" : [
                1,
                1.0000001192092896,
                1.0000001192092896
            ],
            "translation" : [
                -0.07323671132326126,
                -3.3527612686157227e-08,
                1.4901161193847656e-08
            ]
        },
        {
            "children" : [
                0,
                1,
                2,
                3,
                4
            ],
            "name" : "Root",
            "rotation" : [
                0.6721892952919006,
                0,
                0,
                0.7403793334960938
            ],
            "scale" : [
                1,
                1.0000001192092896,
                1.0000219345092773
            ],
            "translation" : [
                0,
                0.35153621435165405,
                -0.46871498227119446
            ]
        },
        {
            "mesh" : 0,
            "name" : "Lisek",
            "skin" : 0
        },
        {
            "children" : [
                6,
                5
            ],
            "name" : "Lisek Rigged"
        },
        {
            "name" : "Bone.005",
            "rotation" : [
                0.17039522528648376,
                -4.2363922564186626e-14,
                1.0697972641082742e-07,
                0.9853758215904236
            ],
            "scale" : [
                1,
                0.9999998807907104,
                1
            ],
            "translation" : [
                -3.7414069967021046e-16,
                0.4289308190345764,
                -2.2351741790771484e-08
            ]
        },
        {
            "children" : [
                8
            ],
            "name" : "Bone.004",
            "rotation" : [
                2.149682565288913e-08,
                -0.997652530670166,
                -0.06847943365573883,
                3.131795267563575e-07
            ],
            "scale" : [
                1,
                0.9999997615814209,
                1
            ],
            "translation" : [
                1.6460867296509175e-14,
                0.46886396408081055,
                1.5511837148096674e-08
            ]
        },
        {
            "children" : [
                9
            ],
            "name" : "Bone.002",
            "rotation" : [
                -0.0662272647023201,
                1.5750842351989732e-17,
                3.0456234288830843e-17,
                0.997804582118988
            ],
            "scale" : [
                1,
                0.9999998807907104,
                0.9999999403953552
            ],
            "translation" : [
                -1.1580528575742387e-23,
                0.44345009326934814,
                -3.725290298461914e-09
            ]
        },
        {
            "children" : [
                10
            ],
            "name" : "Bone.001",
            "rotation" : [
                0.06622724235057831,
                -1.5750842351989732e-17,
                -3.045622436266349e-17,
                0.997804582118988
            ],
            "translation" : [
                -6.879591267838216e-24,
                0.3516480028629303,
                3.6926117719104923e-09
            ]
        },
        {
            "children" : [
                11
            ],
            "name" : "Bone",
            "rotation" : [
                -1.1010111045095528e-08,
                -1.1102230246251565e-16,
                -1.1102230246251565e-16,
                1
            ]
        },
        {
            "children" : [
                12
            ],
            "name" : "Ogon Rigged",
            "rotation" : [
                -0.7071067690849304,
                0,
                0,
                0.7071068286895752
            ],
            "translation" : [
                0,
                0.4282439351081848,
                -0.7008057832717896
            ]
        }
    ],
    "meshes" : [
        {
            "name" : "Lisek",
            "primitives" : [
                {
                    "attributes" : {
                        "POSITION" : 0,
                        "NORMAL" : 1,
                        "JOINTS_0" : 2,
                        "WEIGHTS_0" : 3
                    },
                    "indices" : 4
                }
            ]
        }
    ],
    "skins" : [
        {
            "inverseBindMatrices" : 5,
            "joints" : [
                5,
                0,
                1,
                2,
                3,
                4
            ],
            "name" : "Lisek Rigged"
        }
    ],
    "accessors" : [
        {
            "bufferView" : 0,
            "componentType" : 5126,
            "count" : 20,
            "max" : [
                0.17576810717582703,
                0.8927847743034363,
                0.3726760149002075
            ],
            "min" : [
                -0.17576810717582703,
                -0.0007031192653812468,
                -0.584916353225708
            ],
            "type" : "VEC3"
        },
        {
            "bufferView" : 1,
            "componentType" : 5126,
            "count" : 20,
            "type" : "VEC3"
        },
        {
            "bufferView" : 2,
            "componentType" : 5121,
            "count" : 20,
            "type" : "VEC4"
        },
        {
            "bufferView" : 3,
            "componentType" : 5126,
            "count" : 20,
            "type" : "VEC4"
        },
        {
            "bufferView" : 4,
            "componentType" : 5123,
            "count" : 108,
            "type" : "SCALAR"
        },
        {
            "bufferView" : 5,
            "componentType" : 5126,
            "count" : 6,
            "type" : "MAT4"
        }
    ],
    "bufferViews" : [
        {
            "buffer" : 0,
            "byteLength" : 240,
            "byteOffset" : 0
        },
        {
            "buffer" : 0,
            "byteLength" : 240,
            "byteOffset" : 240
        },
        {
            "buffer" : 0,
            "byteLength" : 80,
            "byteOffset" : 480
        },
        {
            "buffer" : 0,
            "byteLength" : 320,
            "byteOffset" : 560
        },
        {
            "buffer" : 0,
            "byteLength" : 216,
            "byteOffset" : 880
        },
        {
            "buffer" : 0,
            "byteLength" : 384,
            "byteOffset" : 1096
        }
    ],
    "buffers" : [
        {
            "byteLength" : 1480,
            "uri" : "data:application/octet-stream;base64,"
        }
    ]
}
