{
    "asset": {
        "generator": "Khronos glTF Blender I/O v1.6.16",
        "version": "2.0"
    },
    "scene": 0,
    "scenes": [
        {
            "name": "Scene",
            "nodes": [
                7,
                13
            ]
        }
    ],
    "nodes": [
        {
            "name": "Neck",
            "rotation": [
                -0.40009844303131104,
                -1.0555567087067175e-08,
                -1.759862726657957e-07,
                0.9164721965789795
            ],
            "scale": [
                1,
                1,
                1.0000001192092896
            ],
            "translation": [
                -1.2442718330554856e-14,
                0.6851861476898193,
                -1.5133991837501526e-08
            ]
        },
        {
            "name": "Arm.L",
            "rotation": [
                0.7366228103637695,
                -0.06763075292110443,
                -0.07449119538068771,
                0.6687780618667603
            ],
            "scale": [
                1,
                1,
                1.0000001192092896
            ],
            "translation": [
                0.10999999195337296,
                0.6851862668991089,
                -6.957288434250586e-08
            ]
        },
        {
            "name": "Arm.R",
            "rotation": [
                0.7366227507591248,
                0.06763046234846115,
                0.07449169456958771,
                0.6687780618667603
            ],
            "translation": [
                -0.10999999195337296,
                0.6851861476898193,
                -6.750775582986535e-08
            ]
        },
        {
            "name": "Leg.L",
            "rotation": [
                0.7527167797088623,
                -7.861348905180421e-08,
                2.66375764113036e-07,
                0.6583444476127625
            ],
            "scale": [
                1,
                1.0000001192092896,
                1
            ],
            "translation": [
                0.10999999195337296,
                5.605055086732591e-09,
                2.4096610928836526e-08
            ]
        },
        {
            "name": "Leg.R",
            "rotation": [
                0.7527168393135071,
                -2.3490333944664599e-07,
                8.775271709282606e-08,
                0.6583445072174072
            ],
            "scale": [
                1,
                1.0000001192092896,
                1
            ],
            "translation": [
                -0.10999999940395355,
                5.605113262419081e-09,
                -8.08064370971806e-08
            ]
        },
        {
            "children": [
                0,
                1,
                2,
                3,
                4
            ],
            "name": "Root",
            "rotation": [
                0.6721887588500977,
                1.7651736072821222e-07,
                1.6025968818667025e-07,
                0.740379810333252
            ],
            "scale": [
                1,
                1,
                0.9999943971633911
            ],
            "translation": [
                2.8421086014154828e-14,
                0.5279999375343323,
                -0.7039999961853027
            ]
        },
        {
            "mesh": 0,
            "name": "Lisek",
            "skin": 0
        },
        {
            "children": [
                6,
                5
            ],
            "name": "Lisek Rigged"
        },
        {
            "name": "Bone.005",
            "rotation": [
                0.17039519548416138,
                -4.506800409752841e-14,
                1.0697972641082742e-07,
                0.9853758215904236
            ],
            "scale": [
                1,
                0.9999999403953552,
                1
            ],
            "translation": [
                -5.494157663137088e-15,
                0.6440402865409851,
                5.614345965909706e-08
            ]
        },
        {
            "children": [
                8
            ],
            "name": "Bone.004",
            "rotation": [
                2.149682565288913e-08,
                -0.997652530670166,
                -0.06847943365573883,
                3.131795267563575e-07
            ],
            "scale": [
                1,
                0.9999997615814209,
                1
            ],
            "translation": [
                1.4210854715202004e-14,
                0.7039998769760132,
                -5.960458793197176e-10
            ]
        },
        {
            "children": [
                9
            ],
            "name": "Bone.002",
            "rotation": [
                -0.0662272647023201,
                1.5750848969434632e-17,
                3.0456234288830843e-17,
                0.997804582118988
            ],
            "scale": [
                1,
                0.9999998807907104,
                0.9999999403953552
            ],
            "translation": [
                -4.963083675318166e-24,
                0.6658408045768738,
                0
            ]
        },
        {
            "children": [
                10
            ],
            "name": "Bone.001",
            "rotation": [
                0.0662272498011589,
                -1.575083573454483e-17,
                -3.045622436266349e-17,
                0.997804582118988
            ],
            "translation": [
                1.799777477791781e-23,
                0.527999997138977,
                2.7196120335923185e-40
            ]
        },
        {
            "children": [
                11
            ],
            "name": "Bone",
            "rotation": [
                -1.1010111045095528e-08,
                -1.1102230246251565e-16,
                -1.1102230246251565e-16,
                1
            ]
        },
        {
            "children": [
                12
            ],
            "name": "Ogon Rigged",
            "rotation": [
                -0.7071067690849304,
                0,
                0,
                0.7071068286895752
            ],
            "translation": [
                0,
                0.6499999761581421,
                -1.0199999809265137
            ]
        }
    ],
    "meshes": [
        {
            "name": "Lisek",
            "primitives": [
                {
                    "attributes": {
                        "POSITION": 0,
                        "NORMAL": 1,
                        "JOINTS_0": 2,
                        "WEIGHTS_0": 3
                    },
                    "indices": 4
                }
            ]
        }
    ],
    "skins": [
        {
            "inverseBindMatrices": 5,
            "joints": [
                5,
                0,
                1,
                2,
                3,
                4
            ],
            "name": "Lisek Rigged"
        }
    ],
    "accessors": [
        {
            "bufferView": 0,
            "componentType": 5126,
            "count": 20,
            "max": [
                0.2639999985694885,
                1.3409439325332642,
                0.5597515106201172
            ],
            "min": [
                -0.2639999985694885,
                -0.0010560703231021762,
                -0.8785319924354553
            ],
            "type": "VEC3"
        },
        {
            "bufferView": 1,
            "componentType": 5126,
            "count": 20,
            "type": "VEC3"
        },
        {
            "bufferView": 2,
            "componentType": 5121,
            "count": 20,
            "type": "VEC4"
        },
        {
            "bufferView": 3,
            "componentType": 5126,
            "count": 20,
            "type": "VEC4"
        },
        {
            "bufferView": 4,
            "componentType": 5123,
            "count": 108,
            "type": "SCALAR"
        },
        {
            "bufferView": 5,
            "componentType": 5126,
            "count": 6,
            "type": "MAT4"
        }
    ],
    "bufferViews": [
        {
            "buffer": 0,
            "byteLength": 240,
            "byteOffset": 0
        },
        {
            "buffer": 0,
            "byteLength": 240,
            "byteOffset": 240
        },
        {
            "buffer": 0,
            "byteLength": 80,
            "byteOffset": 480
        },
        {
            "buffer": 0,
            "byteLength": 320,
            "byteOffset": 560
        },
        {
            "buffer": 0,
            "byteLength": 216,
            "byteOffset": 880
        },
        {
            "buffer": 0,
            "byteLength": 384,
            "byteOffset": 1096
        }
    ],
    "buffers": [
        {
            "byteLength": 1480,
            "uri": "data:application/octet-stream;base64,"
        }
    ]
}
