# Blender v2.93.0 OBJ File: 'lisek.blend'
# www.blender.org
v 0.220559 0.660924 0.031752
v 0.110000 -0.000498 -0.012248
v 0.198559 0.363623 -0.413729
v 0.132000 0.604978 -0.832701
v 0.110000 -0.005863 -0.735840
v 0.154000 1.032944 0.251751
v 0.264000 1.340944 0.119751
v -0.220559 0.660924 0.031752
v 0.000000 0.724519 -0.055780
v -0.000000 0.328573 -0.017367
v -0.110000 -0.000499 -0.012248
v -0.198559 0.363623 -0.413729
v 0.000000 0.328798 -0.795428
v -0.132000 0.604978 -0.832701
v 0.000000 0.649072 -0.878532
v -0.110000 -0.005863 -0.735840
v -0.154000 1.032944 0.251751
v -0.000000 0.856944 0.559752
v -0.264000 1.340944 0.119751
v -0.000000 1.120944 0.251751
vn 0.8178 -0.5708 -0.0734
vn 0.9967 0.0084 0.0801
vn -0.0059 -0.9641 0.2654
vn 0.0000 -0.5995 0.8003
vn 0.0000 0.7804 -0.6253
vn 0.6925 0.3867 -0.6090
vn 0.0000 0.5951 -0.8036
vn 0.0000 -0.4994 -0.8663
vn 0.0308 -0.9901 -0.1364
vn 0.7257 0.1906 0.6610
vn 0.4170 0.9030 -0.1037
vn 0.0000 -0.0386 0.9992
vn 0.0000 0.9319 0.3627
vn -0.8178 -0.5708 -0.0734
vn 0.0059 -0.9641 0.2654
vn -0.9967 0.0084 0.0801
vn -0.6925 0.3867 -0.6090
vn -0.0308 -0.9901 -0.1364
vn -0.7257 0.1906 0.6610
vn -0.4170 0.9030 -0.1037
s 1
f 3//1 1//2 2//3
f 10//4 3//1 2//3
f 1//2 10//4 2//3
f 9//5 4//6 15//7
f 1//2 3//1 4//6
f 13//8 4//6 5//9
f 4//6 13//8 15//7
f 3//1 13//8 5//9
f 4//6 3//1 5//9
f 10//4 13//8 3//1
f 6//10 1//2 7//11
f 10//4 1//2 18//12
f 1//2 9//5 7//11
f 9//5 20//13 7//11
f 1//2 6//10 18//12
f 9//5 1//2 4//6
f 6//10 20//13 18//12
f 6//10 7//11 20//13
f 12//14 11//15 8//16
f 10//4 11//15 12//14
f 8//16 11//15 10//4
f 9//5 15//7 14//17
f 8//16 14//17 12//14
f 13//8 16//18 14//17
f 14//17 15//7 13//8
f 12//14 16//18 13//8
f 14//17 16//18 12//14
f 10//4 12//14 13//8
f 17//19 19//20 8//16
f 10//4 18//12 8//16
f 8//16 19//20 9//5
f 9//5 19//20 20//13
f 8//16 18//12 17//19
f 9//5 14//17 8//16
f 17//19 18//12 20//13
f 17//19 20//13 19//20
