{
    "asset" : {
        "generator" : "Khronos glTF Blender I/O v1.4.40",
        "version" : "2.0"
    },
    "scene" : 0,
    "scenes" : [
        {
            "name" : "Scene",
            "nodes" : [
                0,
                1,
                2,
                3,
                4,
                5,
                6,
                7,
                8,
                9
            ]
        }
    ],
    "nodes" : [
        {
            "mesh" : 0,
            "name" : "Ground",
            "scale" : [
                4,
                1,
                2
            ],
            "translation" : [
                0,
                0,
                -3
            ]
        },
        {
            "mesh" : 1,
            "name" : "Ground.001",
            "scale" : [
                4,
                1,
                1
            ],
            "translation" : [
                0,
                -0.20000000298023224,
                -1.5
            ]
        },
        {
            "mesh" : 2,
            "name" : "Ground.002",
            "scale" : [
                4,
                1,
                1
            ],
            "translation" : [
                0,
                -0.4000000059604645,
                -0.5
            ]
        },
        {
            "mesh" : 3,
            "name" : "Ground.003",
            "scale" : [
                4,
                1,
                3
            ],
            "translation" : [
                0,
                0,
                1.5
            ]
        },
        {
            "mesh" : 4,
            "name" : "Ground.004",
            "scale" : [
                4,
                1,
                1
            ],
            "translation" : [
                0,
                0.4000000059604645,
                3.5
            ]
        },
        {
            "mesh" : 5,
            "name" : "Ground.005",
            "scale" : [
                4,
                1,
                2
            ],
            "translation" : [
                0,
                0.699999988079071,
                5
            ]
        },
        {
            "mesh" : 6,
            "name" : "Ground.006",
            "scale" : [
                4,
                1,
                3
            ],
            "translation" : [
                0,
                0,
                7.5
            ]
        },
        {
            "mesh" : 7,
            "name" : "Ground.007",
            "scale" : [
                10,
                1,
                14
            ],
            "translation" : [
                7,
                0,
                2.799999952316284
            ]
        },
        {
            "mesh" : 8,
            "name" : "Ogon.001",
            "rotation" : [
                -0.7071068286895752,
                0,
                0,
                -0.7071068286895752
            ],
            "scale" : [
                5,
                10,
                20
            ],
            "translation" : [
                7.331748008728027,
                -0.6523212790489197,
                3.792412281036377
            ]
        },
        {
            "mesh" : 9,
            "name" : "Ogon.002",
            "rotation" : [
                -0.7071068286895752,
                0,
                0,
                -0.7071068286895752
            ],
            "scale" : [
                5,
                10,
                30
            ],
            "translation" : [
                7.871015548706055,
                0.46085792779922485,
                -19.017961502075195
            ]
        }
    ],
    "materials" : [
        {
            "doubleSided" : true,
            "name" : "road",
            "pbrMetallicRoughness" : {
                "baseColorFactor" : [
                    0.23955246806144714,
                    0.23955246806144714,
                    0.23955246806144714,
                    1
                ],
                "metallicFactor" : 0,
                "roughnessFactor" : 0.5
            }
        }
    ],
    "meshes" : [
        {
            "name" : "Cube",
            "primitives" : [
                {
                    "attributes" : {
                        "POSITION" : 0,
                        "NORMAL" : 1,
                        "TEXCOORD_0" : 2
                    },
                    "indices" : 3,
                    "material" : 0
                }
            ]
        },
        {
            "name" : "Cube.001",
            "primitives" : [
                {
                    "attributes" : {
                        "POSITION" : 4,
                        "NORMAL" : 5,
                        "TEXCOORD_0" : 6
                    },
                    "indices" : 3,
                    "material" : 0
                }
            ]
        },
        {
            "name" : "Cube.002",
            "primitives" : [
                {
                    "attributes" : {
                        "POSITION" : 7,
                        "NORMAL" : 8,
                        "TEXCOORD_0" : 9
                    },
                    "indices" : 3,
                    "material" : 0
                }
            ]
        },
        {
            "name" : "Cube.003",
            "primitives" : [
                {
                    "attributes" : {
                        "POSITION" : 10,
                        "NORMAL" : 11,
                        "TEXCOORD_0" : 12
                    },
                    "indices" : 3,
                    "material" : 0
                }
            ]
        },
        {
            "name" : "Cube.004",
            "primitives" : [
                {
                    "attributes" : {
                        "POSITION" : 13,
                        "NORMAL" : 14,
                        "TEXCOORD_0" : 15
                    },
                    "indices" : 3,
                    "material" : 0
                }
            ]
        },
        {
            "name" : "Cube.005",
            "primitives" : [
                {
                    "attributes" : {
                        "POSITION" : 16,
                        "NORMAL" : 17,
                        "TEXCOORD_0" : 18
                    },
                    "indices" : 3,
                    "material" : 0
                }
            ]
        },
        {
            "name" : "Cube.006",
            "primitives" : [
                {
                    "attributes" : {
                        "POSITION" : 19,
                        "NORMAL" : 20,
                        "TEXCOORD_0" : 21
                    },
                    "indices" : 3,
                    "material" : 0
                }
            ]
        },
        {
            "name" : "Cube.007",
            "primitives" : [
                {
                    "attributes" : {
                        "POSITION" : 22,
                        "NORMAL" : 23,
                        "TEXCOORD_0" : 24
                    },
                    "indices" : 3,
                    "material" : 0
                }
            ]
        },
        {
            "name" : "Ogon",
            "primitives" : [
                {
                    "attributes" : {
                        "POSITION" : 25,
                        "NORMAL" : 26
                    },
                    "indices" : 27
                }
            ]
        },
        {
            "name" : "Ogon.002",
            "primitives" : [
                {
                    "attributes" : {
                        "POSITION" : 28,
                        "NORMAL" : 29
                    },
                    "indices" : 27
                }
            ]
        }
    ],
    "accessors" : [
        {
            "bufferView" : 0,
            "componentType" : 5126,
            "count" : 24,
            "max" : [
                0.5,
                0.5,
                0.5
            ],
            "min" : [
                -0.5,
                -0.5,
                -0.5
            ],
            "type" : "VEC3"
        },
        {
            "bufferView" : 1,
            "componentType" : 5126,
            "count" : 24,
            "type" : "VEC3"
        },
        {
            "bufferView" : 2,
            "componentType" : 5126,
            "count" : 24,
            "type" : "VEC2"
        },
        {
            "bufferView" : 3,
            "componentType" : 5123,
            "count" : 36,
            "type" : "SCALAR"
        },
        {
            "bufferView" : 4,
            "componentType" : 5126,
            "count" : 24,
            "max" : [
                0.5,
                0.5,
                0.5
            ],
            "min" : [
                -0.5,
                -0.5,
                -0.5
            ],
            "type" : "VEC3"
        },
        {
            "bufferView" : 5,
            "componentType" : 5126,
            "count" : 24,
            "type" : "VEC3"
        },
        {
            "bufferView" : 6,
            "componentType" : 5126,
            "count" : 24,
            "type" : "VEC2"
        },
        {
            "bufferView" : 7,
            "componentType" : 5126,
            "count" : 24,
            "max" : [
                0.5,
                0.5,
                0.5
            ],
            "min" : [
                -0.5,
                -0.5,
                -0.5
            ],
            "type" : "VEC3"
        },
        {
            "bufferView" : 8,
            "componentType" : 5126,
            "count" : 24,
            "type" : "VEC3"
        },
        {
            "bufferView" : 9,
            "componentType" : 5126,
            "count" : 24,
            "type" : "VEC2"
        },
        {
            "bufferView" : 10,
            "componentType" : 5126,
            "count" : 24,
            "max" : [
                0.5,
                0.5,
                0.5
            ],
            "min" : [
                -0.5,
                -0.5,
                -0.5
            ],
            "type" : "VEC3"
        },
        {
            "bufferView" : 11,
            "componentType" : 5126,
            "count" : 24,
            "type" : "VEC3"
        },
        {
            "bufferView" : 12,
            "componentType" : 5126,
            "count" : 24,
            "type" : "VEC2"
        },
        {
            "bufferView" : 13,
            "componentType" : 5126,
            "count" : 24,
            "max" : [
                0.5,
                0.5,
                0.5
            ],
            "min" : [
                -0.5,
                -0.5,
                -0.5
            ],
            "type" : "VEC3"
        },
        {
            "bufferView" : 14,
            "componentType" : 5126,
            "count" : 24,
            "type" : "VEC3"
        },
        {
            "bufferView" : 15,
            "componentType" : 5126,
            "count" : 24,
            "type" : "VEC2"
        },
        {
            "bufferView" : 16,
            "componentType" : 5126,
            "count" : 24,
            "max" : [
                0.5,
                0.5,
                0.5
            ],
            "min" : [
                -0.5,
                -0.5,
                -0.5
            ],
            "type" : "VEC3"
        },
        {
            "bufferView" : 17,
            "componentType" : 5126,
            "count" : 24,
            "type" : "VEC3"
        },
        {
            "bufferView" : 18,
            "componentType" : 5126,
            "count" : 24,
            "type" : "VEC2"
        },
        {
            "bufferView" : 19,
            "componentType" : 5126,
            "count" : 24,
            "max" : [
                0.5,
                0.5,
                0.5
            ],
            "min" : [
                -0.5,
                -0.5,
                -0.5
            ],
            "type" : "VEC3"
        },
        {
            "bufferView" : 20,
            "componentType" : 5126,
            "count" : 24,
            "type" : "VEC3"
        },
        {
            "bufferView" : 21,
            "componentType" : 5126,
            "count" : 24,
            "type" : "VEC2"
        },
        {
            "bufferView" : 22,
            "componentType" : 5126,
            "count" : 24,
            "max" : [
                0.5,
                0.5,
                0.5
            ],
            "min" : [
                -0.5,
                -0.5,
                -0.5
            ],
            "type" : "VEC3"
        },
        {
            "bufferView" : 23,
            "componentType" : 5126,
            "count" : 24,
            "type" : "VEC3"
        },
        {
            "bufferView" : 24,
            "componentType" : 5126,
            "count" : 24,
            "type" : "VEC2"
        },
        {
            "bufferView" : 25,
            "componentType" : 5126,
            "count" : 17,
            "max" : [
                0.24207958579063416,
                2.216475009918213,
                0.3644196093082428
            ],
            "min" : [
                -0.24694083631038666,
                -0.21977990865707397,
                -0.28745236992836
            ],
            "type" : "VEC3"
        },
        {
            "bufferView" : 26,
            "componentType" : 5126,
            "count" : 17,
            "type" : "VEC3"
        },
        {
            "bufferView" : 27,
            "componentType" : 5123,
            "count" : 90,
            "type" : "SCALAR"
        },
        {
            "bufferView" : 28,
            "componentType" : 5126,
            "count" : 17,
            "max" : [
                0.24207958579063416,
                2.216475009918213,
                0.3644196093082428
            ],
            "min" : [
                -0.24694083631038666,
                -0.21977990865707397,
                -0.28745236992836
            ],
            "type" : "VEC3"
        },
        {
            "bufferView" : 29,
            "componentType" : 5126,
            "count" : 17,
            "type" : "VEC3"
        }
    ],
    "bufferViews" : [
        {
            "buffer" : 0,
            "byteLength" : 288,
            "byteOffset" : 0
        },
        {
            "buffer" : 0,
            "byteLength" : 288,
            "byteOffset" : 288
        },
        {
            "buffer" : 0,
            "byteLength" : 192,
            "byteOffset" : 576
        },
        {
            "buffer" : 0,
            "byteLength" : 72,
            "byteOffset" : 768
        },
        {
            "buffer" : 0,
            "byteLength" : 288,
            "byteOffset" : 840
        },
        {
            "buffer" : 0,
            "byteLength" : 288,
            "byteOffset" : 1128
        },
        {
            "buffer" : 0,
            "byteLength" : 192,
            "byteOffset" : 1416
        },
        {
            "buffer" : 0,
            "byteLength" : 288,
            "byteOffset" : 1608
        },
        {
            "buffer" : 0,
            "byteLength" : 288,
            "byteOffset" : 1896
        },
        {
            "buffer" : 0,
            "byteLength" : 192,
            "byteOffset" : 2184
        },
        {
            "buffer" : 0,
            "byteLength" : 288,
            "byteOffset" : 2376
        },
        {
            "buffer" : 0,
            "byteLength" : 288,
            "byteOffset" : 2664
        },
        {
            "buffer" : 0,
            "byteLength" : 192,
            "byteOffset" : 2952
        },
        {
            "buffer" : 0,
            "byteLength" : 288,
            "byteOffset" : 3144
        },
        {
            "buffer" : 0,
            "byteLength" : 288,
            "byteOffset" : 3432
        },
        {
            "buffer" : 0,
            "byteLength" : 192,
            "byteOffset" : 3720
        },
        {
            "buffer" : 0,
            "byteLength" : 288,
            "byteOffset" : 3912
        },
        {
            "buffer" : 0,
            "byteLength" : 288,
            "byteOffset" : 4200
        },
        {
            "buffer" : 0,
            "byteLength" : 192,
            "byteOffset" : 4488
        },
        {
            "buffer" : 0,
            "byteLength" : 288,
            "byteOffset" : 4680
        },
        {
            "buffer" : 0,
            "byteLength" : 288,
            "byteOffset" : 4968
        },
        {
            "buffer" : 0,
            "byteLength" : 192,
            "byteOffset" : 5256
        },
        {
            "buffer" : 0,
            "byteLength" : 288,
            "byteOffset" : 5448
        },
        {
            "buffer" : 0,
            "byteLength" : 288,
            "byteOffset" : 5736
        },
        {
            "buffer" : 0,
            "byteLength" : 192,
            "byteOffset" : 6024
        },
        {
            "buffer" : 0,
            "byteLength" : 204,
            "byteOffset" : 6216
        },
        {
            "buffer" : 0,
            "byteLength" : 204,
            "byteOffset" : 6420
        },
        {
            "buffer" : 0,
            "byteLength" : 180,
            "byteOffset" : 6624
        },
        {
            "buffer" : 0,
            "byteLength" : 204,
            "byteOffset" : 6804
        },
        {
            "buffer" : 0,
            "byteLength" : 204,
            "byteOffset" : 7008
        }
    ],
    "buffers" : [
        {
            "byteLength" : 7212,
            "uri" : "scene1.bin"
        }
    ]
}
