{
    "asset" : {
        "generator" : "Khronos glTF Blender I/O v1.4.40",
        "version" : "2.0"
    },
    "scene" : 0,
    "scenes" : [
        {
            "name" : "Scene",
            "nodes" : [
                0,
                1,
                2,
                3,
                4,
                5,
                6
            ]
        }
    ],
    "nodes" : [
        {
            "mesh" : 0,
            "name" : "Cylinder",
            "scale" : [
                5,
                11.999999046325684,
                4.999999523162842
            ],
            "translation" : [
                0,
                3,
                0
            ]
        },
        {
            "mesh" : 1,
            "name" : "Cylinder.001",
            "scale" : [
                5.199999809265137,
                0.3999999463558197,
                5.1999993324279785
            ],
            "translation" : [
                0,
                0.0010000000474974513,
                0
            ]
        },
        {
            "mesh" : 2,
            "name" : "Cylinder.002",
            "scale" : [
                5.199999809265137,
                0.3999999463558197,
                5.1999993324279785
            ],
            "translation" : [
                0,
                6,
                0
            ]
        },
        {
            "mesh" : 3,
            "name" : "Cylinder.003",
            "scale" : [
                5.199999809265137,
                0.3999999463558197,
                5.1999993324279785
            ],
            "translation" : [
                0,
                3,
                0
            ]
        },
        {
            "mesh" : 4,
            "name" : "Cylinder.004",
            "scale" : [
                5.199999809265137,
                0.3999999463558197,
                5.1999993324279785
            ],
            "translation" : [
                0,
                1.5,
                0
            ]
        },
        {
            "mesh" : 5,
            "name" : "Cylinder.005",
            "scale" : [
                5.199999809265137,
                0.3999999463558197,
                5.1999993324279785
            ],
            "translation" : [
                0,
                4.5,
                0
            ]
        },
        {
            "mesh" : 6,
            "name" : "Cylinder.006",
            "scale" : [
                0.800000011920929,
                11.999999046325684,
                0.7999998927116394
            ],
            "translation" : [
                0.5266201496124268,
                3,
                1.595329999923706
            ]
        }
    ],
    "materials" : [
        {
            "doubleSided" : true,
            "name" : "red",
            "pbrMetallicRoughness" : {
                "baseColorFactor" : [
                    0.4059999883174896,
                    0,
                    0,
                    1
                ],
                "metallicFactor" : 0,
                "roughnessFactor" : 0.2546440064907074
            }
        },
        {
            "doubleSided" : true,
            "name" : "Material.001",
            "pbrMetallicRoughness" : {
                "baseColorFactor" : [
                    0.800000011920929,
                    0.800000011920929,
                    0.800000011920929,
                    1
                ],
                "metallicFactor" : 0,
                "roughnessFactor" : 0.5
            }
        }
    ],
    "meshes" : [
        {
            "name" : "Cylinder",
            "primitives" : [
                {
                    "attributes" : {
                        "POSITION" : 0,
                        "NORMAL" : 1,
                        "TEXCOORD_0" : 2
                    },
                    "indices" : 3,
                    "material" : 0
                }
            ]
        },
        {
            "name" : "Cylinder.002",
            "primitives" : [
                {
                    "attributes" : {
                        "POSITION" : 4,
                        "NORMAL" : 5,
                        "TEXCOORD_0" : 6
                    },
                    "indices" : 3,
                    "material" : 1
                }
            ]
        },
        {
            "name" : "Cylinder.003",
            "primitives" : [
                {
                    "attributes" : {
                        "POSITION" : 7,
                        "NORMAL" : 8,
                        "TEXCOORD_0" : 9
                    },
                    "indices" : 3,
                    "material" : 1
                }
            ]
        },
        {
            "name" : "Cylinder.004",
            "primitives" : [
                {
                    "attributes" : {
                        "POSITION" : 10,
                        "NORMAL" : 11,
                        "TEXCOORD_0" : 12
                    },
                    "indices" : 3,
                    "material" : 1
                }
            ]
        },
        {
            "name" : "Cylinder.005",
            "primitives" : [
                {
                    "attributes" : {
                        "POSITION" : 13,
                        "NORMAL" : 14,
                        "TEXCOORD_0" : 15
                    },
                    "indices" : 3,
                    "material" : 1
                }
            ]
        },
        {
            "name" : "Cylinder.006",
            "primitives" : [
                {
                    "attributes" : {
                        "POSITION" : 16,
                        "NORMAL" : 17,
                        "TEXCOORD_0" : 18
                    },
                    "indices" : 3,
                    "material" : 1
                }
            ]
        },
        {
            "name" : "Cylinder.007",
            "primitives" : [
                {
                    "attributes" : {
                        "POSITION" : 19,
                        "NORMAL" : 20,
                        "TEXCOORD_0" : 21
                    },
                    "indices" : 3,
                    "material" : 1
                }
            ]
        }
    ],
    "accessors" : [
        {
            "bufferView" : 0,
            "componentType" : 5126,
            "count" : 48,
            "max" : [
                0.25,
                0.2500000298023224,
                0.2500000298023224
            ],
            "min" : [
                -0.25,
                -0.2500000298023224,
                -0.2500000298023224
            ],
            "type" : "VEC3"
        },
        {
            "bufferView" : 1,
            "componentType" : 5126,
            "count" : 48,
            "type" : "VEC3"
        },
        {
            "bufferView" : 2,
            "componentType" : 5126,
            "count" : 48,
            "type" : "VEC2"
        },
        {
            "bufferView" : 3,
            "componentType" : 5123,
            "count" : 84,
            "type" : "SCALAR"
        },
        {
            "bufferView" : 4,
            "componentType" : 5126,
            "count" : 48,
            "max" : [
                0.25,
                0.2500000298023224,
                0.2500000298023224
            ],
            "min" : [
                -0.25,
                -0.2500000298023224,
                -0.2500000298023224
            ],
            "type" : "VEC3"
        },
        {
            "bufferView" : 5,
            "componentType" : 5126,
            "count" : 48,
            "type" : "VEC3"
        },
        {
            "bufferView" : 6,
            "componentType" : 5126,
            "count" : 48,
            "type" : "VEC2"
        },
        {
            "bufferView" : 7,
            "componentType" : 5126,
            "count" : 48,
            "max" : [
                0.25,
                0.2500000298023224,
                0.2500000298023224
            ],
            "min" : [
                -0.25,
                -0.2500000298023224,
                -0.2500000298023224
            ],
            "type" : "VEC3"
        },
        {
            "bufferView" : 8,
            "componentType" : 5126,
            "count" : 48,
            "type" : "VEC3"
        },
        {
            "bufferView" : 9,
            "componentType" : 5126,
            "count" : 48,
            "type" : "VEC2"
        },
        {
            "bufferView" : 10,
            "componentType" : 5126,
            "count" : 48,
            "max" : [
                0.25,
                0.2500000298023224,
                0.2500000298023224
            ],
            "min" : [
                -0.25,
                -0.2500000298023224,
                -0.2500000298023224
            ],
            "type" : "VEC3"
        },
        {
            "bufferView" : 11,
            "componentType" : 5126,
            "count" : 48,
            "type" : "VEC3"
        },
        {
            "bufferView" : 12,
            "componentType" : 5126,
            "count" : 48,
            "type" : "VEC2"
        },
        {
            "bufferView" : 13,
            "componentType" : 5126,
            "count" : 48,
            "max" : [
                0.25,
                0.2500000298023224,
                0.2500000298023224
            ],
            "min" : [
                -0.25,
                -0.2500000298023224,
                -0.2500000298023224
            ],
            "type" : "VEC3"
        },
        {
            "bufferView" : 14,
            "componentType" : 5126,
            "count" : 48,
            "type" : "VEC3"
        },
        {
            "bufferView" : 15,
            "componentType" : 5126,
            "count" : 48,
            "type" : "VEC2"
        },
        {
            "bufferView" : 16,
            "componentType" : 5126,
            "count" : 48,
            "max" : [
                0.25,
                0.2500000298023224,
                0.2500000298023224
            ],
            "min" : [
                -0.25,
                -0.2500000298023224,
                -0.2500000298023224
            ],
            "type" : "VEC3"
        },
        {
            "bufferView" : 17,
            "componentType" : 5126,
            "count" : 48,
            "type" : "VEC3"
        },
        {
            "bufferView" : 18,
            "componentType" : 5126,
            "count" : 48,
            "type" : "VEC2"
        },
        {
            "bufferView" : 19,
            "componentType" : 5126,
            "count" : 48,
            "max" : [
                0.25,
                0.2500000298023224,
                0.2500000298023224
            ],
            "min" : [
                -0.25,
                -0.2500000298023224,
                -0.2500000298023224
            ],
            "type" : "VEC3"
        },
        {
            "bufferView" : 20,
            "componentType" : 5126,
            "count" : 48,
            "type" : "VEC3"
        },
        {
            "bufferView" : 21,
            "componentType" : 5126,
            "count" : 48,
            "type" : "VEC2"
        }
    ],
    "bufferViews" : [
        {
            "buffer" : 0,
            "byteLength" : 576,
            "byteOffset" : 0
        },
        {
            "buffer" : 0,
            "byteLength" : 576,
            "byteOffset" : 576
        },
        {
            "buffer" : 0,
            "byteLength" : 384,
            "byteOffset" : 1152
        },
        {
            "buffer" : 0,
            "byteLength" : 168,
            "byteOffset" : 1536
        },
        {
            "buffer" : 0,
            "byteLength" : 576,
            "byteOffset" : 1704
        },
        {
            "buffer" : 0,
            "byteLength" : 576,
            "byteOffset" : 2280
        },
        {
            "buffer" : 0,
            "byteLength" : 384,
            "byteOffset" : 2856
        },
        {
            "buffer" : 0,
            "byteLength" : 576,
            "byteOffset" : 3240
        },
        {
            "buffer" : 0,
            "byteLength" : 576,
            "byteOffset" : 3816
        },
        {
            "buffer" : 0,
            "byteLength" : 384,
            "byteOffset" : 4392
        },
        {
            "buffer" : 0,
            "byteLength" : 576,
            "byteOffset" : 4776
        },
        {
            "buffer" : 0,
            "byteLength" : 576,
            "byteOffset" : 5352
        },
        {
            "buffer" : 0,
            "byteLength" : 384,
            "byteOffset" : 5928
        },
        {
            "buffer" : 0,
            "byteLength" : 576,
            "byteOffset" : 6312
        },
        {
            "buffer" : 0,
            "byteLength" : 576,
            "byteOffset" : 6888
        },
        {
            "buffer" : 0,
            "byteLength" : 384,
            "byteOffset" : 7464
        },
        {
            "buffer" : 0,
            "byteLength" : 576,
            "byteOffset" : 7848
        },
        {
            "buffer" : 0,
            "byteLength" : 576,
            "byteOffset" : 8424
        },
        {
            "buffer" : 0,
            "byteLength" : 384,
            "byteOffset" : 9000
        },
        {
            "buffer" : 0,
            "byteLength" : 576,
            "byteOffset" : 9384
        },
        {
            "buffer" : 0,
            "byteLength" : 576,
            "byteOffset" : 9960
        },
        {
            "buffer" : 0,
            "byteLength" : 384,
            "byteOffset" : 10536
        }
    ],
    "buffers" : [
        {
            "byteLength" : 10920,
            "uri" : "data:application/octet-stream;base64,"
        }
    ]
}
